<?xml version="1.0" encoding="utf-8"?>
<!-- Generator: Adobe Illustrator 22.1.0, SVG Export Plug-In . SVG Version: 6.00 Build 0)  -->
<svg version="1.1" id="Слой_1" xmlns="http://www.w3.org/2000/svg" xmlns:xlink="http://www.w3.org/1999/xlink" x="0px" y="0px"
	 viewBox="0 0 113.9 126.1" style="enable-background:new 0 0 113.9 126.1;" xml:space="preserve">
<style type="text/css">
	.st0{fill:#FFFFFF;}
</style>
<title>Ресурс 2</title>
<g id="Слой_2_1_">
	<g id="Слой_1-2">
		<circle class="st0" cx="7.6" cy="60.5" r="7.6"/>
		<circle class="st0" cx="32.1" cy="60.5" r="7.6"/>
		<circle class="st0" cx="56.6" cy="60.5" r="7.6"/>
		<circle class="st0" cx="7.6" cy="85" r="7.6"/>
		<circle class="st0" cx="32.1" cy="85" r="7.6"/>
		<circle class="st0" cx="7.6" cy="109.5" r="7.6"/>
		<circle class="st0" cx="7.6" cy="36" r="7.6"/>
		<circle class="st0" cx="32.1" cy="36" r="7.6"/>
		<circle class="st0" cx="7.6" cy="11.4" r="7.6"/>
		<path class="st0" d="M113.9,126.1L68.8,81c-2.7-2.6-2.7-6.8-0.1-9.5s6.8-2.7,9.5-0.1c0,0,0.1,0.1,0.1,0.1l22.3,22.3V6.7
			c0.1-3.7,3.3-6.6,7-6.4c3.5,0.1,6.3,2.9,6.4,6.4V126.1z"/>
	</g>
</g>
</svg>
